<?xml version="1.0" standalone="no"?><!DOCTYPE svg PUBLIC "-//W3C//DTD SVG 1.1//EN" "http://www.w3.org/Graphics/SVG/1.1/DTD/svg11.dtd"><svg t="1641882213721" class="icon" viewBox="0 0 1024 1024" version="1.1" xmlns="http://www.w3.org/2000/svg" p-id="6003" xmlns:xlink="http://www.w3.org/1999/xlink" width="200" height="200"><defs><style type="text/css"></style></defs><path d="M486.4 767.6416c-126.8224 0-230.0416-103.168-230.0416-230.0416S359.5264 307.5584 486.4 307.5584s230.0416 103.168 230.0416 230.0416-103.168 230.0416-230.0416 230.0416z m0-408.8832c-98.6112 0-178.8416 80.2304-178.8416 178.8416s80.2304 178.8416 178.8416 178.8416 178.8416-80.2304 178.8416-178.8416S585.0112 358.7584 486.4 358.7584zM486.4 256a25.6 25.6 0 0 1-25.6-25.6v-153.6a25.6 25.6 0 0 1 51.2 0v153.6a25.6 25.6 0 0 1-25.6 25.6zM486.4 1024a25.6 25.6 0 0 1-25.6-25.6v-153.6a25.6 25.6 0 0 1 51.2 0v153.6a25.6 25.6 0 0 1-25.6 25.6zM179.2 563.2h-153.6a25.6 25.6 0 0 1 0-51.2h153.6a25.6 25.6 0 0 1 0 51.2zM947.2 563.2h-153.6a25.6 25.6 0 0 1 0-51.2h153.6a25.6 25.6 0 0 1 0 51.2zM230.4 307.2a25.7024 25.7024 0 0 1-18.1248-7.4752l-102.4-102.4a25.6 25.6 0 0 1 36.1984-36.1984l102.4 102.4A25.6 25.6 0 0 1 230.3488 307.2zM128 921.6a25.6 25.6 0 0 1-18.1248-43.6736l102.4-102.4a25.6 25.6 0 0 1 36.1984 36.1984l-102.4 102.4a25.4976 25.4976 0 0 1-18.1248 7.4752zM844.8 921.6a25.7024 25.7024 0 0 1-18.1248-7.4752l-102.4-102.4a25.6 25.6 0 0 1 36.1984-36.1984l102.4 102.4a25.6 25.6 0 0 1-18.1248 43.6736zM742.4 307.2a25.6 25.6 0 0 1-18.1248-43.6736l102.4-102.4a25.6 25.6 0 0 1 36.1984 36.1984l-102.4 102.4a25.4976 25.4976 0 0 1-18.1248 7.4752z" p-id="6004" fill="#fff"></path></svg>